<svg width="93" height="40" viewBox="0 0 93 40" fill="none" xmlns="http://www.w3.org/2000/svg">
<g clip-path="url(#clip0_1_823)">
<path d="M57.1946 3.19011V5.15114L56.5726 4.41919C56.1104 3.87709 55.5483 3.4699 54.8863 3.1976C54.2193 2.92531 53.4399 2.78541 52.5506 2.78541C51.6612 2.78541 50.8319 2.95778 50.0699 3.30752C49.3005 3.65726 48.591 4.18686 47.944 4.88883C47.302 5.58581 46.8224 6.36023 46.5026 7.21459C46.1804 8.06895 46.0205 9.01324 46.0205 10.0375C46.0205 11.0617 46.1804 12.021 46.5026 12.8803C46.8224 13.7397 47.3045 14.5166 47.944 15.2136C48.5836 15.9056 49.288 16.4277 50.0525 16.7724C50.8144 17.1147 51.6513 17.2895 52.5506 17.2895C53.4499 17.2895 54.2193 17.1521 54.8863 16.8773C55.5483 16.6075 56.1104 16.1979 56.5726 15.6558L57.1946 14.9263V16.8848H60.8069V3.19011H57.1946ZM49.8926 11.6063C49.7202 11.1391 49.6328 10.6145 49.6328 10.0375C49.6328 9.46041 49.7202 8.9333 49.8926 8.46865C50.0699 7.99151 50.3372 7.57682 50.687 7.22458C51.0367 6.87485 51.4439 6.61004 51.9036 6.43517C52.3582 6.26031 52.8628 6.17037 53.4124 6.17037C53.962 6.17037 54.4666 6.25781 54.9188 6.43268C55.3785 6.60505 55.7857 6.87235 56.1379 7.22458C56.4926 7.57932 56.7599 7.99401 56.9323 8.46865C57.1047 8.9358 57.1921 9.46041 57.1921 10.0375C57.1921 10.6145 57.1047 11.1391 56.9323 11.6063C56.7574 12.0834 56.4926 12.4981 56.1379 12.8504C55.7882 13.2001 55.381 13.4649 54.9188 13.6423C54.4641 13.8171 53.9595 13.9046 53.4099 13.9046C52.8603 13.9046 52.3532 13.8171 51.9011 13.6423C51.4414 13.4649 51.0342 13.2001 50.6845 12.8504C50.3322 12.4981 50.0674 12.0809 49.8901 11.6063H49.8926ZM75.4234 3.30752C74.6615 2.95778 73.8321 2.78541 72.9403 2.78541C72.0485 2.78541 71.2715 2.92281 70.6045 3.1976C69.945 3.4674 69.3805 3.87709 68.9183 4.41919L68.2963 5.14864V3.19011H64.684V22.4032H68.2963V14.9263L68.9183 15.6558C69.3805 16.1979 69.945 16.6075 70.6045 16.8773C71.274 17.1521 72.0559 17.2895 72.9428 17.2895C73.8296 17.2895 74.679 17.1172 75.4409 16.7724C76.2078 16.4277 76.9123 15.9056 77.5493 15.2136C78.1889 14.5166 78.671 13.7372 78.9908 12.8803C79.3105 12.021 79.4704 11.0717 79.4704 10.0375C79.4704 9.00325 79.308 8.06895 78.9908 7.21459C78.671 6.36023 78.1889 5.58331 77.5493 4.88883C76.9023 4.18686 76.1929 3.65726 75.4234 3.30752ZM70.5821 13.6398C70.1249 13.4649 69.7152 13.2001 69.3555 12.8504C69.0007 12.4956 68.7334 12.0784 68.5586 11.6038C68.3862 11.1366 68.2988 10.612 68.2988 10.035C68.2988 9.45791 68.3862 8.9308 68.5586 8.46615C68.7359 7.98901 69.0032 7.57432 69.353 7.22208C69.7177 6.86985 70.1274 6.60505 70.5846 6.43018C71.0417 6.25531 71.5413 6.16788 72.0809 6.16788C73.1751 6.16788 74.0769 6.52011 74.7789 7.22208C75.5009 7.92406 75.8631 8.86335 75.8631 10.035C75.8631 10.6145 75.7732 11.1416 75.5958 11.6063C75.4159 12.0784 75.1411 12.4956 74.7789 12.8479C74.4292 13.1976 74.0245 13.4624 73.5698 13.6398C73.1202 13.8146 72.623 13.9021 72.0834 13.9021C71.5438 13.9021 71.0442 13.8146 70.5896 13.6398H70.5821ZM93.0077 3.18761H80.7544V6.62753H85.1037V16.8823H88.716V6.63003H93.0077V3.19011V3.18761Z" fill="white"/>
<path d="M58.1714 23.1102L51.4939 30.9118V23.1102H47.9965V36.8049H50.6495L57.3295 29.0032V36.8049H60.8269V23.1102H58.1739H58.1714ZM73.9171 23.1102V28.2938H68.3138V23.1102H64.7015V36.8049H68.3138V31.6213H73.9171V36.8049H77.5294V23.1102H73.9171Z" fill="white"/>
<path d="M80.7545 36.8024H93.0078V33.3625H88.716V17.5893H85.1037V33.3625H80.7545V36.8024Z" fill="white"/>
<mask id="mask0_1_823" style="mask-type:luminance" maskUnits="userSpaceOnUse" x="0" y="0" width="40" height="40">
<path d="M2.72795 0H37.2696C38.7709 0 40 1.22658 40 2.72795V37.2696C40 38.7709 38.7734 40 37.2696 40H2.72795C1.22658 40 0 38.7734 0 37.2696V2.72795C0 1.22658 1.22658 0 2.72795 0Z" fill="white"/>
</mask>
<g mask="url(#mask0_1_823)">
<path fill-rule="evenodd" clip-rule="evenodd" d="M20 20L19.4729 48.4637L17.382 48.3462L20 20Z" fill="#52DDD0"/>
<path fill-rule="evenodd" clip-rule="evenodd" d="M20 20L17.7292 48.3662L15.993 48.1839L20 20Z" fill="#51DDCF"/>
<path fill-rule="evenodd" clip-rule="evenodd" d="M20 20L16.3403 48.2213L14.614 47.954L20 20Z" fill="#51DCCF"/>
<path fill-rule="evenodd" clip-rule="evenodd" d="M20 20L14.9613 48.0065L13.2501 47.6568L20 20Z" fill="#51DCCE"/>
<path fill-rule="evenodd" clip-rule="evenodd" d="M20 20L13.5923 47.7267L11.9011 47.292L20 20Z" fill="#51DBCE"/>
<path fill-rule="evenodd" clip-rule="evenodd" d="M20 20L12.2383 47.3795L10.5721 46.8624L20 20Z" fill="#50DBCD"/>
<path fill-rule="evenodd" clip-rule="evenodd" d="M20 20L10.9043 46.9648L9.26553 46.3652L20 20Z" fill="#50DACD"/>
<path fill-rule="evenodd" clip-rule="evenodd" d="M20 20L9.5928 46.4851L7.98401 45.8081L20 20Z" fill="#50DACC"/>
<path fill-rule="evenodd" clip-rule="evenodd" d="M20 20L8.30627 45.943L6.73245 45.1861L20 20Z" fill="#4FD9CC"/>
<path fill-rule="evenodd" clip-rule="evenodd" d="M20 20L7.04722 45.3385L5.51337 44.5066L20 20Z" fill="#4FD9CB"/>
<path fill-rule="evenodd" clip-rule="evenodd" d="M20 20L5.81813 44.6715L4.32675 43.7647L20 20Z" fill="#4FD8CB"/>
<path fill-rule="evenodd" clip-rule="evenodd" d="M20 20L4.62653 43.947L3.18011 42.9678L20 20Z" fill="#4FD8CA"/>
<path fill-rule="evenodd" clip-rule="evenodd" d="M20 20L3.46988 43.1651L2.07343 42.1159L20 20Z" fill="#4ED7CA"/>
<path fill-rule="evenodd" clip-rule="evenodd" d="M20 20L2.35324 42.3258L1.00925 41.2091L20 20Z" fill="#4ED7C9"/>
<path fill-rule="evenodd" clip-rule="evenodd" d="M20 20L1.27903 41.4314L-0.00750732 40.2523L20 20Z" fill="#4ED6C9"/>
<path fill-rule="evenodd" clip-rule="evenodd" d="M20 20L0.249804 40.4871L-0.976776 39.2456L20 20Z" fill="#4DD5C8"/>
<path fill-rule="evenodd" clip-rule="evenodd" d="M20 20L-0.731961 39.4929L-1.89609 38.1939L20 20Z" fill="#4DD5C8"/>
<path fill-rule="evenodd" clip-rule="evenodd" d="M20 20L-1.66376 38.4537L-2.76294 37.0972L20 20Z" fill="#4DD4C7"/>
<path fill-rule="evenodd" clip-rule="evenodd" d="M20 20L-2.5431 37.3695L-3.57483 35.958L20 20Z" fill="#4CD4C7"/>
<path fill-rule="evenodd" clip-rule="evenodd" d="M20 20L-3.36748 36.2403L-4.32925 34.7839L20 20Z" fill="#4CD3C7"/>
<path fill-rule="evenodd" clip-rule="evenodd" d="M20 20L-4.13691 35.0762L-5.02625 33.5723L20 20Z" fill="#4CD3C6"/>
<path fill-rule="evenodd" clip-rule="evenodd" d="M20 20L-4.84638 33.8721L-5.66077 32.3283L20 20Z" fill="#4CD2C6"/>
<path fill-rule="evenodd" clip-rule="evenodd" d="M20 20L-5.49837 32.6355L-6.23532 31.0542L20 20Z" fill="#4BD2C5"/>
<path fill-rule="evenodd" clip-rule="evenodd" d="M20 20L-6.08796 31.3715L-6.74496 29.7527L20 20Z" fill="#4BD1C5"/>
<path fill-rule="evenodd" clip-rule="evenodd" d="M20 20L-6.61504 30.0774L-7.19211 28.4287L20 20Z" fill="#4BD1C4"/>
<path fill-rule="evenodd" clip-rule="evenodd" d="M20 20L-7.07721 28.7584L-7.57184 27.0847L20 20Z" fill="#4AD0C4"/>
<path fill-rule="evenodd" clip-rule="evenodd" d="M20 20L-7.47441 27.4194L-7.8866 25.7232L20 20Z" fill="#4AD0C3"/>
<path fill-rule="evenodd" clip-rule="evenodd" d="M20 20L-7.80416 26.063L-8.13391 24.3467L20 20Z" fill="#4ACFC3"/>
<path fill-rule="evenodd" clip-rule="evenodd" d="M20 20L-8.06897 24.6915L-8.31378 22.9628L20 20Z" fill="#4ACEC2"/>
<path fill-rule="evenodd" clip-rule="evenodd" d="M20 20L-8.26383 23.3075L-8.42371 21.5688L20 20Z" fill="#49CEC2"/>
<path fill-rule="evenodd" clip-rule="evenodd" d="M20 20L-8.39371 21.9161L-8.46866 20.1724L20 20Z" fill="#49CDC1"/>
<path fill-rule="evenodd" clip-rule="evenodd" d="M20 20L-8.45367 20.5221L-8.44118 18.7759L20 20Z" fill="#49CDC1"/>
<path fill-rule="evenodd" clip-rule="evenodd" d="M20 20L-8.44366 19.1257L-8.34624 17.382L20 20Z" fill="#48CCC0"/>
<path fill-rule="evenodd" clip-rule="evenodd" d="M20 20L-8.36624 17.7292L-8.18388 15.993L20 20Z" fill="#48CCC0"/>
<path fill-rule="evenodd" clip-rule="evenodd" d="M20 20L-8.22134 16.3402L-7.95404 14.6165L20 20Z" fill="#48CBBF"/>
<path fill-rule="evenodd" clip-rule="evenodd" d="M20 20L-8.0065 14.9613L-7.65676 13.2501L20 20Z" fill="#48CBBF"/>
<path fill-rule="evenodd" clip-rule="evenodd" d="M20 20L-7.72672 13.5923L-7.29204 11.9011L20 20Z" fill="#47CABF"/>
<path fill-rule="evenodd" clip-rule="evenodd" d="M20 20L-7.37949 12.2408L-6.86237 10.5721L20 20Z" fill="#47CABE"/>
<path fill-rule="evenodd" clip-rule="evenodd" d="M20 20L-6.96478 10.9068L-6.36523 9.26555L20 20Z" fill="#47C9BE"/>
<path fill-rule="evenodd" clip-rule="evenodd" d="M20 20L-6.48514 9.59281L-5.80815 7.98401L20 20Z" fill="#46C9BD"/>
<path fill-rule="evenodd" clip-rule="evenodd" d="M20 20L-5.94305 8.30627L-5.18612 6.73245L20 20Z" fill="#46C8BD"/>
<path fill-rule="evenodd" clip-rule="evenodd" d="M20 20L-5.3385 7.04721L-4.50662 5.51336L20 20Z" fill="#46C8BC"/>
<path fill-rule="evenodd" clip-rule="evenodd" d="M20 20L-4.67151 5.82064L-3.76469 4.32676L20 20Z" fill="#45C7BC"/>
<path fill-rule="evenodd" clip-rule="evenodd" d="M20 20L-3.94705 4.62653L-2.96779 3.18011L20 20Z" fill="#45C6BB"/>
<path fill-rule="evenodd" clip-rule="evenodd" d="M20 20L-3.16263 3.4699L-2.11591 2.07344L20 20Z" fill="#45C6BB"/>
<path fill-rule="evenodd" clip-rule="evenodd" d="M20 20L-2.32578 2.35324L-1.20911 1.00924L20 20Z" fill="#45C5BA"/>
<path fill-rule="evenodd" clip-rule="evenodd" d="M20 20L-1.43143 1.27904L-0.249813 -0.00749397L20 20Z" fill="#44C5BA"/>
<path fill-rule="evenodd" clip-rule="evenodd" d="M20 20L-0.487152 0.249812L0.754417 -0.976768L20 20Z" fill="#44C4B9"/>
<path fill-rule="evenodd" clip-rule="evenodd" d="M20 20L0.507111 -0.731951L1.80863 -1.89608L20 20Z" fill="#44C4B9"/>
<path fill-rule="evenodd" clip-rule="evenodd" d="M20 20L1.54633 -1.66375L2.90281 -2.76293L20 20Z" fill="#43C3B8"/>
<path fill-rule="evenodd" clip-rule="evenodd" d="M20 20L2.63303 -2.54309L4.04197 -3.57482L20 20Z" fill="#43C3B8"/>
<path fill-rule="evenodd" clip-rule="evenodd" d="M20 20L3.75967 -3.36748L5.21858 -4.32925L20 20Z" fill="#43C2B7"/>
<path fill-rule="evenodd" clip-rule="evenodd" d="M20 20L4.9263 -4.1369L6.43017 -5.02623L20 20Z" fill="#43C2B7"/>
<path fill-rule="evenodd" clip-rule="evenodd" d="M20 20L6.1279 -4.84886L7.67424 -5.66076L20 20Z" fill="#42C1B6"/>
<path fill-rule="evenodd" clip-rule="evenodd" d="M20 20L7.36447 -5.49838L8.94828 -6.23532L20 20Z" fill="#42C1B6"/>
<path fill-rule="evenodd" clip-rule="evenodd" d="M20 20L8.63101 -6.08793L10.2473 -6.74494L20 20Z" fill="#42C0B6"/>
<path fill-rule="evenodd" clip-rule="evenodd" d="M20 20L9.92505 -6.61504L11.5713 -7.19211L20 20Z" fill="#41BFB5"/>
<path fill-rule="evenodd" clip-rule="evenodd" d="M20 20L11.2415 -7.07719L12.9153 -7.57432L20 20Z" fill="#41BFB5"/>
<path fill-rule="evenodd" clip-rule="evenodd" d="M20 20L12.5806 -7.47439L14.2768 -7.88659L20 20Z" fill="#41BEB4"/>
<path fill-rule="evenodd" clip-rule="evenodd" d="M20 20L13.9395 -7.80415L15.6533 -8.1339L20 20Z" fill="#41BEB4"/>
<path fill-rule="evenodd" clip-rule="evenodd" d="M20 20L15.311 -8.06895L17.0397 -8.31376L20 20Z" fill="#40BDB3"/>
<path fill-rule="evenodd" clip-rule="evenodd" d="M20 20L16.6925 -8.2663L18.4312 -8.42618L20 20Z" fill="#40BDB3"/>
<path fill-rule="evenodd" clip-rule="evenodd" d="M20 20L18.0839 -8.3937L19.8276 -8.46865L20 20Z" fill="#40BCB2"/>
<path fill-rule="evenodd" clip-rule="evenodd" d="M20 20L19.4804 -8.45366L21.2266 -8.44367L20 20Z" fill="#3FBCB2"/>
<path fill-rule="evenodd" clip-rule="evenodd" d="M20 20L20.8768 -8.44617L22.6205 -8.34874L20 20Z" fill="#3FBBB1"/>
<path fill-rule="evenodd" clip-rule="evenodd" d="M20 20L22.2708 -8.36872L24.007 -8.18636L20 20Z" fill="#3FBBB1"/>
<path fill-rule="evenodd" clip-rule="evenodd" d="M20 20L23.6598 -8.22133L25.386 -7.95653L20 20Z" fill="#3EBAB0"/>
<path fill-rule="evenodd" clip-rule="evenodd" d="M20 20L25.0412 -8.00899L26.7499 -7.65676L20 20Z" fill="#3EBAB0"/>
<path fill-rule="evenodd" clip-rule="evenodd" d="M20 20L26.4077 -7.72671L28.0989 -7.29203L20 20Z" fill="#3EB9AF"/>
<path fill-rule="evenodd" clip-rule="evenodd" d="M20 20L27.7617 -7.37947L29.4279 -6.86235L20 20Z" fill="#3EB9AF"/>
<path fill-rule="evenodd" clip-rule="evenodd" d="M20 20L29.0957 -6.96727L30.7369 -6.36772L20 20Z" fill="#3DB8AE"/>
<path fill-rule="evenodd" clip-rule="evenodd" d="M20 20L30.4072 -6.48763L32.016 -5.81064L20 20Z" fill="#3DB7AE"/>
<path fill-rule="evenodd" clip-rule="evenodd" d="M20 20L31.6937 -5.94554L33.2675 -5.18861L20 20Z" fill="#3DB7AE"/>
<path fill-rule="evenodd" clip-rule="evenodd" d="M20 20L32.9528 -5.34099L34.4891 -4.50662L20 20Z" fill="#3CB6AD"/>
<path fill-rule="evenodd" clip-rule="evenodd" d="M20 20L34.1819 -4.67399L35.6732 -3.76717L20 20Z" fill="#3CB6AD"/>
<path fill-rule="evenodd" clip-rule="evenodd" d="M20 20L35.376 -3.94954L36.8199 -2.97027L20 20Z" fill="#3CB5AC"/>
<path fill-rule="evenodd" clip-rule="evenodd" d="M20 20L36.5301 -3.16513L37.9266 -2.11591L20 20Z" fill="#3CB5AC"/>
<path fill-rule="evenodd" clip-rule="evenodd" d="M20 20L37.6468 -2.32576L38.9908 -1.21159L20 20Z" fill="#3BB4AB"/>
<path fill-rule="evenodd" clip-rule="evenodd" d="M20 20L38.721 -1.43393L40.0075 -0.252312L20 20Z" fill="#3BB4AB"/>
<path fill-rule="evenodd" clip-rule="evenodd" d="M20 20L39.7502 -0.489632L40.9793 0.751937L20 20Z" fill="#3BB3AA"/>
<path fill-rule="evenodd" clip-rule="evenodd" d="M20 20L40.732 0.504622L41.8961 1.80615L20 20Z" fill="#3AB3AA"/>
<path fill-rule="evenodd" clip-rule="evenodd" d="M20 20L41.6638 1.54384L42.7629 2.90282L20 20Z" fill="#3AB2A9"/>
<path fill-rule="evenodd" clip-rule="evenodd" d="M20 20L42.5431 2.63053L43.5748 4.03947L20 20Z" fill="#3AB2A9"/>
<path fill-rule="evenodd" clip-rule="evenodd" d="M20 20L43.3675 3.75718L44.3293 5.21609L20 20Z" fill="#3AB1A8"/>
<path fill-rule="evenodd" clip-rule="evenodd" d="M20 20L44.1369 4.92381L45.0262 6.42768L20 20Z" fill="#39B0A8"/>
<path fill-rule="evenodd" clip-rule="evenodd" d="M20 20L44.8489 6.12541L45.6608 7.67175L20 20Z" fill="#39B0A7"/>
<path fill-rule="evenodd" clip-rule="evenodd" d="M20 20L45.4984 7.36198L46.2353 8.94579L20 20Z" fill="#39AFA7"/>
<path fill-rule="evenodd" clip-rule="evenodd" d="M20 20L46.0879 8.62853L46.7449 10.2448L20 20Z" fill="#38AFA6"/>
<path fill-rule="evenodd" clip-rule="evenodd" d="M20 20L46.615 9.92256L47.1921 11.5688L20 20Z" fill="#38AEA6"/>
<path fill-rule="evenodd" clip-rule="evenodd" d="M20 20L47.0772 11.2391L47.5743 12.9128L20 20Z" fill="#38AEA5"/>
<path fill-rule="evenodd" clip-rule="evenodd" d="M20 20L47.4744 12.5781L47.8866 14.2743L20 20Z" fill="#37ADA5"/>
<path fill-rule="evenodd" clip-rule="evenodd" d="M20 20L47.8041 13.937L48.1339 15.6508L20 20Z" fill="#37ADA5"/>
<path fill-rule="evenodd" clip-rule="evenodd" d="M20 20L48.0689 15.3085L48.3138 17.0372L20 20Z" fill="#37ACA4"/>
<path fill-rule="evenodd" clip-rule="evenodd" d="M20 20L48.2663 16.69L48.4262 18.4287L20 20Z" fill="#37ACA4"/>
<path fill-rule="evenodd" clip-rule="evenodd" d="M20 20L48.3937 18.0814L48.4687 19.8251L20 20Z" fill="#36ABA3"/>
<path fill-rule="evenodd" clip-rule="evenodd" d="M20 20L48.4537 19.4779L48.4412 21.2241L20 20Z" fill="#36ABA3"/>
<path fill-rule="evenodd" clip-rule="evenodd" d="M20 20L48.4437 20.8743L48.3487 22.618L20 20Z" fill="#36AAA2"/>
<path fill-rule="evenodd" clip-rule="evenodd" d="M20 20L48.3662 22.2683L48.1864 24.0045L20 20Z" fill="#35AAA2"/>
<path fill-rule="evenodd" clip-rule="evenodd" d="M20 20L48.2213 23.6573L47.954 25.3835L20 20Z" fill="#35A9A1"/>
<path fill-rule="evenodd" clip-rule="evenodd" d="M20 20L48.009 25.0387L47.6568 26.7474L20 20Z" fill="#35A8A1"/>
<path fill-rule="evenodd" clip-rule="evenodd" d="M20 20L47.7267 26.4052L47.292 28.0964L20 20Z" fill="#35A8A0"/>
<path fill-rule="evenodd" clip-rule="evenodd" d="M20 20L47.3795 27.7592L46.8624 29.4254L20 20Z" fill="#34A7A0"/>
<path fill-rule="evenodd" clip-rule="evenodd" d="M20 20L46.9648 29.0932L46.3677 30.7344L20 20Z" fill="#34A79F"/>
<path fill-rule="evenodd" clip-rule="evenodd" d="M20 20L46.4876 30.4047L45.8081 32.0135L20 20Z" fill="#34A69F"/>
<path fill-rule="evenodd" clip-rule="evenodd" d="M20 20L45.943 31.6912L45.1886 33.2651L20 20Z" fill="#33A69E"/>
<path fill-rule="evenodd" clip-rule="evenodd" d="M20 20L45.3385 32.9503L44.5066 34.4866L20 20Z" fill="#33A59E"/>
<path fill-rule="evenodd" clip-rule="evenodd" d="M20 20L44.674 34.1794L43.7647 35.6707L20 20Z" fill="#33A59D"/>
<path fill-rule="evenodd" clip-rule="evenodd" d="M20 20L43.947 35.3735L42.9678 36.8174L20 20Z" fill="#33A49D"/>
<path fill-rule="evenodd" clip-rule="evenodd" d="M20 20L43.1651 36.5301L42.1159 37.9241L20 20Z" fill="#32A49D"/>
<path fill-rule="evenodd" clip-rule="evenodd" d="M20 20L42.3258 37.6468L41.2091 38.9883L20 20Z" fill="#32A39C"/>
<path fill-rule="evenodd" clip-rule="evenodd" d="M20 20L41.4314 38.721L40.2523 40.0075L20 20Z" fill="#32A39C"/>
<path fill-rule="evenodd" clip-rule="evenodd" d="M20 20L40.4871 39.7502L39.2456 40.9768L20 20Z" fill="#31A29B"/>
<path fill-rule="evenodd" clip-rule="evenodd" d="M20 20L39.4929 40.7295L38.1939 41.8961L20 20Z" fill="#31A19B"/>
<path fill-rule="evenodd" clip-rule="evenodd" d="M20 20L38.4537 41.6613L37.0972 42.7604L20 20Z" fill="#31A19A"/>
<path fill-rule="evenodd" clip-rule="evenodd" d="M20 20L37.367 42.5406L35.958 43.5723L20 20Z" fill="#30A09A"/>
<path fill-rule="evenodd" clip-rule="evenodd" d="M20 20L36.2403 43.3675L34.7839 44.3268L20 20Z" fill="#30A099"/>
<path fill-rule="evenodd" clip-rule="evenodd" d="M20 20L35.0737 44.1344L33.5723 45.0237L20 20Z" fill="#309F99"/>
<path fill-rule="evenodd" clip-rule="evenodd" d="M20 20L33.8721 44.8464L32.3283 45.6608L20 20Z" fill="#309F98"/>
<path fill-rule="evenodd" clip-rule="evenodd" d="M20 20L32.6355 45.4959L31.0542 46.2328L20 20Z" fill="#2F9E98"/>
<path fill-rule="evenodd" clip-rule="evenodd" d="M20 20L31.369 46.0854L29.7527 46.7449L20 20Z" fill="#2F9E97"/>
<path fill-rule="evenodd" clip-rule="evenodd" d="M20 20L30.0774 46.6125L28.4287 47.1921L20 20Z" fill="#2F9D97"/>
<path fill-rule="evenodd" clip-rule="evenodd" d="M20 20L28.7584 47.0747L27.0847 47.5718L20 20Z" fill="#2E9D96"/>
<path fill-rule="evenodd" clip-rule="evenodd" d="M20 20L27.4194 47.4719L25.7232 47.8866L20 20Z" fill="#2E9C96"/>
<path fill-rule="evenodd" clip-rule="evenodd" d="M20 20L26.063 47.8041L24.3467 48.1339L20 20Z" fill="#2E9C95"/>
<path fill-rule="evenodd" clip-rule="evenodd" d="M20 20L24.6915 48.0665L22.9628 48.3138L20 20Z" fill="#2E9B95"/>
<path fill-rule="evenodd" clip-rule="evenodd" d="M20 20L23.3075 48.2638L21.5688 48.4237L20 20Z" fill="#2D9B94"/>
<path fill-rule="evenodd" clip-rule="evenodd" d="M20 20L21.9161 48.3912L20.1724 48.4662L20 20Z" fill="#2D9A94"/>
<path fill-rule="evenodd" clip-rule="evenodd" d="M20 20L20.5221 48.4512L19.1256 48.4437L20 20Z" fill="#52DED0"/>
</g>
<path fill-rule="evenodd" clip-rule="evenodd" d="M26.7499 36.4002V30.9918L20 27.0997V19.0957L26.7499 22.9928V15.2086L20 11.3215V3.5998L33.345 11.4689V36.2878L26.7499 36.4002Z" fill="#121211"/>
<path fill-rule="evenodd" clip-rule="evenodd" d="M13.2476 36.4002V30.9918L20 27.0997V19.0957L13.2501 22.9928V15.2086L20 11.3215V3.5998L6.655 11.4689V36.2878L13.2476 36.4002Z" fill="#237874"/>
</g>
<defs>
<clipPath id="clip0_1_823">
<rect width="93.0077" height="40" fill="white"/>
</clipPath>
</defs>
</svg>
